<?xml version="1.0" encoding="iso-8859-1"?>
<!-- Generator: Adobe Illustrator 19.0.0, SVG Export Plug-In . SVG Version: 6.00 Build 0)  -->
<svg version="1.1" id="Capa_1" xmlns="http://www.w3.org/2000/svg" xmlns:xlink="http://www.w3.org/1999/xlink" x="0px" y="0px"
	 viewBox="0 0 512.002 512.002" style="enable-background:new 0 0 512.002 512.002;" xml:space="preserve">
<g>
	<g>
		<path d="M446.717,171.998c0,5.523,4.477,10,10,10h41.41c0.012,0,0.024,0.002,0.035,0.002c0.153,0,0.306-0.019,0.46-0.026
			c0.198-0.009,0.396-0.013,0.591-0.033c0.139-0.015,0.276-0.043,0.415-0.063c0.223-0.033,0.445-0.066,0.663-0.114
			c0.122-0.027,0.243-0.062,0.365-0.094c0.238-0.061,0.473-0.128,0.703-0.206c0.109-0.037,0.217-0.078,0.325-0.119
			c0.248-0.094,0.49-0.196,0.728-0.309c0.058-0.027,0.117-0.045,0.174-0.074c0.045-0.022,0.085-0.05,0.13-0.072
			c0.181-0.093,0.356-0.193,0.53-0.296c0.121-0.071,0.241-0.142,0.358-0.217c0.142-0.092,0.278-0.191,0.415-0.29
			c0.137-0.099,0.275-0.198,0.405-0.303c0.106-0.085,0.206-0.176,0.308-0.265c0.146-0.128,0.292-0.255,0.43-0.39
			c0.085-0.083,0.164-0.172,0.246-0.258c0.139-0.147,0.279-0.294,0.408-0.449c0.082-0.097,0.156-0.2,0.234-0.3
			c0.116-0.15,0.232-0.298,0.339-0.454c0.088-0.128,0.168-0.262,0.25-0.394c0.084-0.135,0.17-0.268,0.247-0.406
			c0.09-0.162,0.171-0.33,0.252-0.497c0.057-0.117,0.117-0.232,0.169-0.351c0.08-0.183,0.15-0.371,0.22-0.56
			c0.042-0.113,0.087-0.225,0.124-0.339c0.06-0.182,0.109-0.369,0.159-0.555c0.035-0.132,0.072-0.263,0.102-0.397
			c0.036-0.164,0.064-0.33,0.092-0.496c0.028-0.166,0.056-0.333,0.076-0.501c0.016-0.138,0.026-0.278,0.036-0.418
			c0.015-0.201,0.027-0.402,0.03-0.605c0.001-0.05,0.008-0.099,0.008-0.149c0-0.076-0.01-0.15-0.012-0.226
			c-0.004-0.208-0.014-0.415-0.032-0.623c-0.011-0.136-0.027-0.27-0.044-0.404c-0.023-0.184-0.05-0.368-0.084-0.552
			c-0.029-0.159-0.063-0.316-0.1-0.473c-0.036-0.152-0.074-0.303-0.117-0.455c-0.052-0.184-0.111-0.365-0.173-0.545
			c-0.043-0.124-0.087-0.247-0.135-0.369c-0.078-0.199-0.163-0.393-0.253-0.585c-0.031-0.066-0.054-0.134-0.087-0.2
			c-0.034-0.068-0.073-0.134-0.107-0.202c-0.038-0.072-0.075-0.144-0.114-0.215c-14.626-28.941-56.55-46.913-89.237-56.903
			c-20.263-6.193-42.983-11.134-67.198-14.706c-5.243-12.563-16.343-24.742-31.403-34.183c-15.621-9.793-34.154-15.827-53.058-17.42
			V10c0-5.523-4.478-10-10-10c-5.522,0-10,4.477-10,10v33.937c-18.904,1.592-37.436,7.626-53.058,17.419
			c-15.06,9.441-26.16,21.621-31.403,34.184c-24.215,3.572-46.935,8.513-67.198,14.706c-32.845,10.039-75.026,28.132-89.457,57.32
			c-1.533,3.1-1.355,6.771,0.469,9.709c1.825,2.937,5.037,4.724,8.495,4.724h232.153v11.5H134.254c-5.522,0-10,4.477-10,10
			c0,5.523,4.478,10,10,10h121.747h221.571c-22.176,19.843-69.148,38.441-134.465,47.468c-0.493-0.006-0.989,0.011-1.486,0.079
			c-27.329,3.735-56.136,5.629-85.62,5.629c-29.483,0-58.29-1.894-85.62-5.629c-0.492-0.067-0.982-0.085-1.471-0.079
			c-65.322-9.027-112.289-27.625-134.468-47.469h20.845c5.522,0,10-4.477,10-10c0-5.523-4.478-10-10-10H13.849
			c-0.072,0-0.142,0.009-0.213,0.011c-0.215,0.004-0.431,0.014-0.646,0.033c-0.128,0.011-0.254,0.026-0.38,0.041
			c-0.193,0.024-0.386,0.053-0.579,0.088c-0.149,0.027-0.297,0.059-0.443,0.093c-0.163,0.038-0.325,0.079-0.487,0.125
			c-0.172,0.049-0.342,0.104-0.51,0.162c-0.136,0.047-0.271,0.095-0.406,0.148c-0.185,0.073-0.365,0.152-0.545,0.236
			c-0.075,0.035-0.151,0.061-0.225,0.098c-0.049,0.024-0.093,0.054-0.142,0.079c-0.169,0.087-0.333,0.181-0.495,0.277
			c-0.132,0.078-0.264,0.155-0.392,0.238c-0.129,0.084-0.253,0.174-0.377,0.264c-0.15,0.108-0.3,0.216-0.442,0.331
			c-0.092,0.074-0.179,0.153-0.268,0.231c-0.16,0.139-0.319,0.278-0.468,0.425c-0.071,0.07-0.137,0.145-0.206,0.217
			c-0.153,0.16-0.305,0.322-0.446,0.491c-0.069,0.082-0.131,0.168-0.197,0.252c-0.129,0.165-0.258,0.33-0.375,0.502
			c-0.076,0.111-0.144,0.226-0.216,0.34c-0.096,0.152-0.193,0.304-0.28,0.46c-0.081,0.145-0.152,0.295-0.226,0.445
			c-0.066,0.134-0.135,0.267-0.194,0.404c-0.073,0.167-0.136,0.338-0.2,0.509c-0.049,0.13-0.1,0.259-0.143,0.391
			c-0.055,0.167-0.099,0.337-0.145,0.507c-0.04,0.148-0.081,0.295-0.115,0.445c-0.033,0.149-0.057,0.3-0.083,0.451
			c-0.032,0.182-0.062,0.363-0.084,0.547c-0.014,0.124-0.023,0.25-0.033,0.376c-0.017,0.215-0.03,0.431-0.033,0.648
			c-0.001,0.045-0.007,0.088-0.007,0.133c0,0.068,0.009,0.134,0.01,0.201c0.004,0.221,0.014,0.443,0.033,0.665
			c0.01,0.122,0.025,0.243,0.04,0.364c0.024,0.198,0.054,0.395,0.09,0.592c0.027,0.146,0.058,0.29,0.091,0.434
			c0.038,0.165,0.08,0.329,0.127,0.494c0.049,0.171,0.104,0.34,0.161,0.507c0.047,0.136,0.095,0.271,0.148,0.406
			c0.074,0.186,0.154,0.369,0.238,0.55c0.034,0.073,0.06,0.148,0.096,0.221c0.037,0.075,0.08,0.147,0.118,0.222
			c0.032,0.061,0.063,0.122,0.097,0.182c14.621,28.948,56.552,46.924,89.244,56.915c20.263,6.193,42.983,11.134,67.199,14.706
			c5.244,12.562,16.344,24.742,31.403,34.183c15.622,9.793,34.154,15.827,53.058,17.419v25.999h-3.399
			c-11.718,0-21.25,9.533-21.25,21.25v64.5c0,11.717,9.532,21.25,21.25,21.25h3.479l-0.08,37.425
			c-0.012,5.522,4.456,10.009,9.979,10.021c0.008,0,0.015,0,0.021,0c5.513,0,9.988-4.463,10-9.979l0.079-37.465h3.521
			c11.718,0,21.25-9.533,21.25-21.25v-64.5c0-11.717-9.532-21.25-21.25-21.25h-3.6v-25.999c18.903-1.592,37.436-7.626,53.058-17.419
			c15.06-9.441,26.16-21.621,31.403-34.183c24.216-3.572,46.936-8.514,67.199-14.706c32.845-10.039,75.027-28.132,89.457-57.32
			c1.533-3.1,1.355-6.771-0.469-9.708c-1.825-2.938-5.037-4.724-8.495-4.724H266.001v-11.5h111.748c5.522,0,10-4.477,10-10
			s-4.478-10-10-10H256.002h-0.001c-0.756,0-1.49,0.091-2.198,0.25c-0.708-0.159-1.442-0.25-2.198-0.25H34.431
			c22.177-19.844,69.15-38.441,134.467-47.469c0.492,0.006,0.987-0.011,1.483-0.079c27.33-3.735,56.137-5.629,85.62-5.629
			c29.484,0,58.291,1.894,85.62,5.629c0.453,0.062,0.905,0.092,1.355,0.092c0.052,0,0.102-0.007,0.153-0.008
			c65.303,9.029,112.256,27.623,134.43,47.464h-20.843C451.195,161.998,446.717,166.475,446.717,171.998z M269.602,377.558
			c0.666,0,1.25,0.584,1.25,1.25v64.5c0,0.666-0.584,1.25-1.25,1.25h-27c-0.666,0-1.25-0.584-1.25-1.25v-64.5
			c0-0.666,0.584-1.25,1.25-1.25H269.602z M308.436,297.194c-15.229,9.546-33.851,14.804-52.435,14.804s-37.205-5.258-52.435-14.804
			c-6.679-4.187-12.362-9.014-16.652-14.021c14.918,1.551,30.191,2.579,45.694,3.099c1.086,0.037,2.172,0.071,3.26,0.103
			c1.151,0.033,2.3,0.07,3.454,0.097c2.281,0.055,4.566,0.096,6.854,0.129c0.728,0.01,1.456,0.018,2.185,0.026
			c2.544,0.028,5.09,0.048,7.64,0.048c2.551,0,5.097-0.019,7.64-0.048c0.729-0.008,1.457-0.016,2.185-0.026
			c2.288-0.033,4.574-0.074,6.855-0.129c1.153-0.027,2.302-0.064,3.453-0.097c1.088-0.032,2.175-0.066,3.261-0.103
			c15.503-0.52,30.776-1.548,45.694-3.099C320.799,288.18,315.115,293.007,308.436,297.194z M279.39,89.225
			c-1.079-0.037-2.159-0.07-3.24-0.102c-1.158-0.033-2.314-0.07-3.474-0.098c-2.278-0.055-4.561-0.096-6.847-0.129
			c-0.728-0.01-1.457-0.019-2.186-0.026c-2.544-0.028-5.09-0.048-7.64-0.048c-2.551,0-5.096,0.02-7.64,0.048
			c-0.729,0.008-1.458,0.016-2.186,0.026c-2.286,0.033-4.569,0.073-6.847,0.129c-1.161,0.028-2.317,0.064-3.475,0.098
			c-1.08,0.032-2.16,0.065-3.239,0.102c-15.507,0.519-30.782,1.547-45.702,3.098c4.29-5.008,9.973-9.834,16.653-14.021
			c15.229-9.546,33.851-14.804,52.435-14.804c18.584,0,37.206,5.258,52.435,14.805c6.681,4.188,12.363,9.013,16.653,14.021
			C310.17,90.773,294.895,89.745,279.39,89.225z"/>
	</g>
</g>
<g>
	<g>
		<path d="M407.31,161.998h-0.475c-5.522,0-10,4.477-10,10s4.478,10,10,10h0.475c5.522,0,10-4.477,10-10
			S412.832,161.998,407.31,161.998z"/>
	</g>
</g>
<g>
	<g>
		<path d="M105.17,193.498h-0.476c-5.522,0-10,4.477-10,10s4.478,10,10,10h0.476c5.522,0,10-4.477,10-10
			S110.692,193.498,105.17,193.498z"/>
	</g>
</g>
<g>
</g>
<g>
</g>
<g>
</g>
<g>
</g>
<g>
</g>
<g>
</g>
<g>
</g>
<g>
</g>
<g>
</g>
<g>
</g>
<g>
</g>
<g>
</g>
<g>
</g>
<g>
</g>
<g>
</g>
</svg>
