<svg height="511pt" viewBox="-41 0 511 511.99963" width="511pt" xmlns="http://www.w3.org/2000/svg"><path d="m66.84375 27.996094 118.363281 68.335937-51.046875 29.472657c-14.089844-12.023438-34.800781-14.550782-51.734375-4.769532-21.488281 12.40625-28.878906 39.980469-16.472656 61.46875 6.011719 10.410156 15.714844 17.855469 27.324219 20.96875 3.875 1.039063 7.8125 1.550782 11.71875 1.550782 7.800781 0 15.492187-2.042969 22.425781-6.046876 10.410156-6.011718 17.855469-15.714843 20.96875-27.324218 1.769531-6.597656 2.011719-13.359375.792969-19.882813l66.023437-38.117187 66.023438 38.117187c-1.21875 6.523438-.976563 13.285157.792969 19.882813 3.109374 11.609375 10.554687 21.3125 20.964843 27.324218 6.933594 4.003907 14.628907 6.046876 22.425781 6.046876 3.910157 0 7.84375-.511719 11.722657-1.550782 11.609375-3.113281 21.3125-10.558594 27.320312-20.96875 12.40625-21.488281 5.019531-49.0625-16.46875-61.46875-16.933593-9.78125-37.644531-7.253906-51.738281 4.769532l-51.046875-29.472657 118.367187-68.335937c7.171876-4.144532 9.632813-13.316406 5.488282-20.492188-4.140625-7.171875-13.316406-9.632812-20.488282-5.488281l-133.363281 76.996094-133.363281-77c-7.171875-4.144531-16.347656-1.683594-20.488281 5.492187-4.144531 7.175782-1.683594 16.347656 5.488281 20.492188zm52.570312 135.886718c-1.035156 3.871094-3.519531 7.105469-6.988281 9.109376-3.46875 2.003906-7.515625 2.53125-11.382812 1.5-3.867188-1.039063-7.101563-3.519532-9.105469-6.988282-4.136719-7.164062-1.675781-16.355468 5.488281-20.492187 2.355469-1.359375 4.933594-2.007813 7.476563-2.007813 5.1875 0 10.238281 2.691406 13.015625 7.5 2 3.46875 2.535156 7.511719 1.496093 11.378906zm206.101563-18.878906c2.542969 0 5.117187.648438 7.472656 2.007813 7.164063 4.136719 9.628907 13.328125 5.492188 20.492187-2.003907 3.46875-5.238281 5.949219-9.109375 6.988282-3.867188 1.03125-7.910156.503906-11.378906-1.5-3.472657-2.003907-5.953126-5.238282-6.992188-9.109376-1.035156-3.867187-.503906-7.910156 1.5-11.378906 2.773438-4.808594 7.828125-7.5 13.015625-7.5zm0 0"/><path d="m430.496094 442.046875v-170.042969c0-16.699218-19.347656-23.5625-25.703125-25.816406-10.976563-3.890625-26.335938-7.335938-45.652344-10.230469-38.484375-5.773437-89.5-8.953125-143.644531-8.953125-54.140625 0-105.15625 3.179688-143.644532 8.953125-19.3125 2.894531-34.671874 6.339844-45.648437 10.230469-6.359375 2.257812-25.703125 9.117188-25.703125 25.816406v170.042969.058594 24.894531c0 16.699219 19.34375 23.5625 25.703125 25.816406 10.976563 3.890625 26.335937 7.335938 45.648437 10.230469 38.488282 5.773437 89.503907 8.953125 143.644532 8.953125 54.144531 0 105.160156-3.179688 143.644531-8.953125 19.316406-2.894531 34.675781-6.339844 45.652344-10.230469 6.355469-2.257812 25.703125-9.117187 25.703125-25.816406v-24.894531c0-.019531 0-.039063 0-.058594zm-400-142.800781c10.5625 3.3125 24.441406 6.265625 41.355468 8.804687 38.488282 5.769531 89.503907 8.953125 143.644532 8.953125 54.144531 0 105.15625-3.183594 143.644531-8.953125 16.914063-2.539062 30.792969-5.492187 41.355469-8.804687v93.214844l-39.1875-58.78125c-2.84375-4.265626-7.691406-6.808594-12.804688-6.675782-5.128906.109375-9.847656 2.835938-12.503906 7.222656l-54.441406 89.828126-53.582032-80.375c-2.78125-4.171876-7.464843-6.679688-12.480468-6.679688s-9.699219 2.507812-12.480469 6.679688l-53.582031 80.375-54.441406-89.828126c-2.65625-4.386718-7.375-7.109374-12.503907-7.222656-5.117187-.121094-9.957031 2.40625-12.804687 6.675782l-39.1875 58.78125zm57.3125-35.214844c35.480468-4.53125 80.828125-7.027344 127.6875-7.027344 46.855468 0 92.203125 2.496094 127.6875 7.027344 20.761718 2.648438 34.519531 5.515625 43.519531 7.972656-9 2.453125-22.757813 5.320313-43.519531 7.96875-35.484375 4.535156-80.832032 7.03125-127.6875 7.03125-46.859375 0-92.207032-2.496094-127.6875-7.03125-20.765625-2.648437-34.519532-5.515625-43.523438-7.96875 9.003906-2.457031 22.757813-5.324218 43.523438-7.972656zm255.375 210.941406c-35.480469 4.53125-80.828125 7.027344-127.6875 7.027344s-92.207032-2.496094-127.6875-7.027344c-37.769532-4.824218-52.359375-10.355468-57.3125-12.835937v-15.59375l51.066406-76.597657 54.4375 89.828126c2.660156 4.386718 7.375 7.113281 12.503906 7.222656 5.148438.144531 9.960938-2.40625 12.804688-6.675782l54.1875-81.277343 54.1875 81.277343c2.785156 4.179688 7.472656 6.679688 12.476562 6.679688.109375 0 .21875 0 .324219-.003906 5.128906-.109375 9.847656-2.835938 12.507813-7.222656l54.4375-89.828126 51.0625 76.597657v15.59375c-4.949219 2.480469-19.539063 8.011719-57.308594 12.835937zm0 0"/></svg>