<?xml version="1.0" encoding="iso-8859-1"?>
<!-- Generator: Adobe Illustrator 19.0.0, SVG Export Plug-In . SVG Version: 6.00 Build 0)  -->
<svg version="1.1" id="Capa_1" xmlns="http://www.w3.org/2000/svg" xmlns:xlink="http://www.w3.org/1999/xlink" x="0px" y="0px"
	 viewBox="0 0 512 512" style="enable-background:new 0 0 512 512;" xml:space="preserve">
<g>
	<g>
		<path d="M499.167,438.426L305.769,254.528l47.734-50.081c0.953-0.999,1.658-2.145,2.117-3.359c0.459-1.215,0.672-2.5,0.642-3.779
			c-0.061-2.559-1.099-5.093-3.098-6.998c-1-0.952-2.145-1.658-3.359-2.116c-2.734-1.033-5.821-0.822-8.4,0.613
			c-0.859,0.478-1.662,1.093-2.377,1.842l-47.751,50.097l-20.769-19.748l125.5-119.333c1.585,3.054,3.63,5.901,6.162,8.433
			c2.409,2.409,5.102,4.376,7.987,5.928l-16.653,17.47c-3.81,3.997-3.658,10.326,0.339,14.136c1.936,1.845,4.418,2.761,6.896,2.761
			c2.64,0,5.274-1.039,7.239-3.1l26.312-27.605c8.32-1.442,16.486-5.497,23.117-12.127c20.341-20.341,36.015-40.399,45.327-58.005
			c10.05-19,11.936-33.428,5.603-42.884c-0.727-1.085-1.659-2.017-2.744-2.745c-9.457-6.331-23.883-4.445-42.884,5.603
			c-17.606,9.313-37.664,24.987-58.005,45.328c-6.425,6.425-10.439,14.292-11.994,22.344L255.999,207.203L119.282,77.201
			c-1.597-8.306-5.744-16.095-11.987-22.338c-20.342-20.341-40.4-36.016-58.005-45.328C30.289-0.515,15.86-2.401,6.406,3.931
			c-1.085,0.728-2.017,1.66-2.744,2.745c-6.332,9.456-4.446,23.883,5.604,42.884c9.313,17.606,24.986,37.663,45.327,58.004
			c6.734,6.734,15.049,10.815,23.503,12.196l52.074,54.765c1.966,2.067,4.603,3.109,7.248,3.109c2.475,0,4.953-0.914,6.888-2.753
			c4.001-3.805,4.161-10.133,0.356-14.135l-42.623-44.825c2.81-1.536,5.436-3.467,7.79-5.821c2.508-2.508,4.567-5.345,6.171-8.424
			l369.387,351.243c4.163,3.959,6.498,9.42,6.573,15.375c0.078,6.234-2.384,12.316-6.754,16.686
			c-4.303,4.303-10.265,6.757-16.398,6.756c-0.097,0-0.193,0-0.289-0.002c-5.955-0.075-11.415-2.41-15.375-6.575L199.07,217.962
			c-3.805-4.001-10.135-4.161-14.136-0.356c-4.001,3.804-4.161,10.133-0.356,14.135l21.661,22.78L12.832,438.426
			c-8.104,7.706-12.646,18.223-12.79,29.615c-0.146,11.592,4.45,22.92,12.609,31.078c8.034,8.035,19.139,12.614,30.543,12.614
			c0.178,0,0.357-0.001,0.535-0.003c11.391-0.144,21.908-4.685,29.615-12.79l182.656-192.089l182.655,192.088
			c7.706,8.105,18.223,12.647,29.615,12.791c0.179,0.002,0.356,0.003,0.536,0.003c11.403,0,22.51-4.579,30.543-12.613
			c8.159-8.16,12.755-19.487,12.609-31.079C511.813,456.65,507.272,446.132,499.167,438.426z M412.011,83.62
			c0.33-5.349,2.757-10.54,6.834-14.617c23.307-23.306,41.177-35.254,52.061-41.173c10.833-5.89,17.646-7.419,21.08-7.56
			c-0.131,3.455-1.662,10.266-7.547,21.091c-5.919,10.885-17.866,28.754-41.174,52.061c-4.077,4.077-9.269,6.504-14.617,6.835
			c-4.877,0.299-9.266-1.226-12.339-4.298v-0.001C413.236,92.885,411.709,88.503,412.011,83.62z M95.688,95.958L95.688,95.958
			c-3.074,3.074-7.447,4.6-12.34,4.298c-5.348-0.33-10.539-2.758-14.616-6.835C45.426,70.116,33.479,52.248,27.56,41.361
			C21.671,30.529,20.142,23.716,20,20.282c3.454,0.131,10.267,1.663,21.092,7.548c10.886,5.919,28.755,17.865,52.061,41.172
			C101.146,76.996,102.307,89.34,95.688,95.958z M58.852,485.16c-3.959,4.164-9.42,6.499-15.375,6.574
			c-0.096,0.001-0.192,0.002-0.289,0.002c-6.132,0-12.094-2.454-16.396-6.757c-4.371-4.37-6.833-10.453-6.754-16.686
			c0.074-5.955,2.409-11.415,6.573-15.375l193.408-183.907l22.184,23.33L58.852,485.16z"/>
	</g>
</g>
<g>
	<g>
		<path d="M165.03,182.165l-0.327-0.344c-3.803-4.002-10.133-4.164-14.136-0.36c-4.002,3.804-4.163,10.132-0.36,14.135l0.327,0.344
			c1.966,2.068,4.605,3.111,7.25,3.111c2.474,0,4.951-0.913,6.886-2.751C168.673,192.495,168.833,186.167,165.03,182.165z"/>
	</g>
</g>
<g>
	<g>
		<path d="M373.56,168.924c-3.992-3.812-10.32-3.667-14.135,0.328l-0.328,0.344c-3.813,3.994-3.665,10.323,0.329,14.136
			c1.936,1.849,4.42,2.767,6.902,2.767c2.637,0,5.269-1.037,7.233-3.095l0.328-0.344
			C377.701,179.065,377.554,172.736,373.56,168.924z"/>
	</g>
</g>
<g>
</g>
<g>
</g>
<g>
</g>
<g>
</g>
<g>
</g>
<g>
</g>
<g>
</g>
<g>
</g>
<g>
</g>
<g>
</g>
<g>
</g>
<g>
</g>
<g>
</g>
<g>
</g>
<g>
</g>
</svg>
