<svg height="512pt" viewBox="0 0 512.00049 512" width="512pt" xmlns="http://www.w3.org/2000/svg"><path d="m248.6875 101.777344c5.074219 8.789062 13.269531 15.078125 23.074219 17.703125 3.28125.878906 6.578125 1.300781 9.824219 1.300781 16.777343 0 32.171874-11.214844 36.714843-28.171875 5.421875-20.238281-6.628906-41.113281-26.871093-46.539063-9.804688-2.625-20.042969-1.277343-28.832032 3.796876-5.824218 3.363281-10.539062 8.097656-13.828125 13.761718l-236.179687-63.285156c-5.335938-1.429688-10.816406 1.738281-12.246094 7.070312-1.429688 5.335938 1.734375 10.816407 7.070312 12.246094l236.175782 63.285156c.019531 6.546876 1.734375 13.007813 5.097656 18.832032zm23.910156-34.589844c2.773438-1.601562 5.851563-2.417969 8.96875-2.417969 1.5625 0 3.140625.203125 4.6875.621094 9.585938 2.566406 15.296875 12.457031 12.730469 22.042969-2.570313 9.589844-12.457031 15.296875-22.046875 12.730468-4.644531-1.246093-8.523438-4.226562-10.929688-8.390624-2.402343-4.160157-3.042968-9.011719-1.796874-13.65625 1.242187-4.644532 4.222656-8.527344 8.386718-10.929688zm0 0"/><path d="m511.65625 112.644531c-1.429688-5.335937-6.910156-8.503906-12.246094-7.074219l-236.175781 63.285157c-3.292969-5.660157-8.007813-10.398438-13.832031-13.757813-8.789063-5.078125-19.027344-6.425781-28.832032-3.796875-20.238281 5.421875-32.292968 26.300781-26.871093 46.539063.777343 2.898437 1.878906 5.625 3.242187 8.160156h-112.9375c-16.542968 0-30 13.457031-30 30 0 13.035156 8.359375 24.152344 20 28.28125v189.4375c-11.640625 4.128906-20 15.242188-20 28.277344 0 16.542968 13.457032 30 30 30h343.996094c16.542969 0 30-13.457032 30-30 0-13.035156-8.363281-24.148438-20-28.277344v-189.4375c11.636719-4.128906 20-15.246094 20-28.28125 0-16.542969-13.457031-30-30-30h-164.140625c2.996094-5.558594 4.53125-11.652344 4.550781-17.828125l236.175782-63.28125c5.335937-1.429687 8.5-6.914063 7.070312-12.246094zm-154.640625 339.355469 60.984375-145.988281v145.988281zm-15.015625-15.945312-71.039062-170.054688h142.078124zm-187.015625 15.945312h-60.980469v-145.988281zm-56.019531-186h142.074218l-71.039062 170.058594zm329.035156 226h-343.996094c-5.515625 0-10-4.488281-10-10 0-5.515625 4.484375-10 10-10h85.972656.023438.027344 40.976562c5.519532 0 10-4.480469 10-10 0-5.523438-4.480468-10-10-10h-25.984375l70.980469-169.929688 70.984375 169.929688h-25.988281c-5.523438 0-10 4.476562-10 10 0 5.519531 4.476562 10 10 10h40.976562.027344.027344 85.972656c5.511719 0 10 4.484375 10 10 0 5.511719-4.488281 10-10 10zm10-256c0 5.515625-4.488281 10-10 10h-343.996094c-5.515625 0-10-4.484375-10-10 0-5.511719 4.484375-10 10-10h146.011719c.132813.003906.265625.007812.398437.007812.085938 0 .171876-.007812.253907-.007812h197.332031c5.511719 0 10 4.484375 10 10zm-212.253906-65.382812c4.644531-1.242188 9.492187-.605469 13.65625 1.800781 4.164062 2.402343 7.144531 6.285156 8.390625 10.929687 1.242187 4.644532.605469 9.492188-1.800781 13.65625-2.402344 4.164063-6.285157 7.144532-10.929688 8.386719-9.585938 2.570313-19.476562-3.140625-22.046875-12.726563-2.566406-9.585937 3.144531-19.476562 12.730469-22.046874zm0 0"/><path d="m256 452c-2.628906 0-5.210938 1.066406-7.070312 2.929688-1.859376 1.859374-2.929688 4.4375-2.929688 7.070312 0 2.628906 1.070312 5.207031 2.929688 7.066406 1.859374 1.859375 4.441406 2.933594 7.070312 2.933594 2.632812 0 5.210938-1.070312 7.070312-2.933594 1.859376-1.859375 2.929688-4.4375 2.929688-7.066406 0-2.632812-1.070312-5.210938-2.929688-7.070312-1.859374-1.863282-4.441406-2.929688-7.070312-2.929688zm0 0"/></svg>