<?xml version="1.0" encoding="iso-8859-1"?>
<!-- Generator: Adobe Illustrator 16.0.0, SVG Export Plug-In . SVG Version: 6.00 Build 0)  -->
<!DOCTYPE svg PUBLIC "-//W3C//DTD SVG 1.1//EN" "http://www.w3.org/Graphics/SVG/1.1/DTD/svg11.dtd">
<svg version="1.1" id="Capa_1" xmlns="http://www.w3.org/2000/svg" xmlns:xlink="http://www.w3.org/1999/xlink" x="0px" y="0px"
	 width="57.31px" height="57.31px" viewBox="0 0 57.31 57.31" style="enable-background:new 0 0 57.31 57.31;" xml:space="preserve"
	>
<g>
	<g>
		<path d="M15.115,31.273c-0.858,0-1.695-0.094-2.515-0.24c-0.106,3.646-0.525,11.14-2.171,15.454
			c-1.294,3.396-1.241,6.638,0.145,8.671c0.957,1.408,2.472,2.131,4.499,2.152h0.042h0.041c2.027-0.021,3.542-0.744,4.5-2.152
			c1.385-2.033,1.439-5.275,0.144-8.671c-1.645-4.314-2.063-11.809-2.171-15.454C16.81,31.179,15.973,31.273,15.115,31.273z
			 M17.528,54.893c-0.939,0.802-2.31-0.556-1.362-1.363c2.066-1.763,0.76-4.547-0.271-6.54c-0.57-1.102,1.093-2.077,1.664-0.973
			C18.994,48.792,20.333,52.5,17.528,54.893z"/>
		<path d="M15.115,22.799c5.717,0,10.836-1.586,13.688-3.903c0.202-0.836,0.343-1.698,0.408-2.584
			c-2.059-1.044-4.75-2.281-6.72-0.723c-0.925,0.732-0.931,0.787-1.972,1.235c-1.521,0.655-3.354-0.813-4.603-1.411
			c-3.74-1.792-4.196,1.561-7.22,1.106c-1.288-0.194-1.324-0.198-2.519-0.81c-1.925-0.985-3.57-0.653-5.188-0.012
			c0.04,1.101,0.188,2.17,0.436,3.199C4.279,21.212,9.398,22.799,15.115,22.799z"/>
		<path d="M26.667,6.402C24.104,2.534,19.891,0,15.116,0S6.127,2.534,3.564,6.402C6.722,5.003,10.712,4.17,15.116,4.17
			C19.518,4.171,23.507,5.003,26.667,6.402z"/>
		<path d="M27.215,22.925c-3.237,1.55-7.44,2.478-12.1,2.478c-4.659,0-8.863-0.928-12.101-2.479c1.89,3.334,4.947,5.819,8.572,6.814
			c0.173,0.047,0.343,0.102,0.52,0.143c0.171,0.038,0.346,0.068,0.52,0.102c0.809,0.154,1.638,0.248,2.488,0.248
			c0.85,0,1.679-0.094,2.489-0.248c0.174-0.033,0.349-0.063,0.52-0.102c0.176-0.041,0.346-0.096,0.519-0.143
			C22.268,28.744,25.324,26.26,27.215,22.925z"/>
		<path d="M5.776,13.363c2.552,0.686,4.066,0.875,6.464-0.267c0.549-0.261,1.332-0.405,1.946-0.281
			c1.996,0.4,4.98,2.938,6.941,1.413c0.954-0.742,1.168-0.883,2.262-1.332c1.613-0.661,3.914,0.294,5.831,1.252
			c-0.075-1.261-0.282-2.482-0.629-3.64c-2.891-2.223-7.9-3.732-13.476-3.732S4.529,8.285,1.639,10.508
			c-0.304,1.015-0.51,2.076-0.607,3.172C2.54,13.166,4.076,12.906,5.776,13.363z"/>
		<path d="M35.239,54.326l0.039,0.011l0.022,0.008c0.509,0.138,0.999,0.208,1.458,0.208c1.144,0,2.112-0.424,2.881-1.263
			c1.237-1.349,1.843-3.708,1.617-6.312c-0.32-3.687,0.965-9.501,1.71-12.464c-0.655-0.075-1.305-0.185-1.941-0.366
			c-0.64-0.183-1.249-0.429-1.841-0.708c-0.932,2.912-2.905,8.525-5.12,11.487c-1.732,2.319-2.428,4.909-1.815,6.76
			C32.676,52.974,33.683,53.863,35.239,54.326z M36.917,51.69c2.02-0.923,1.616-3.403,1.252-5.199
			c-0.201-0.995,1.324-1.388,1.525-0.393c0.505,2.502,0.727,5.716-2.014,6.968C36.766,53.485,35.992,52.113,36.917,51.69z"/>
		<path d="M47.146,12.689c3.471,0.99,6.427,2.544,8.596,4.359c-1.14-3.632-3.891-6.583-7.657-7.657
			c-0.993-0.284-1.997-0.419-2.989-0.419c-2.767,0-5.435,1.061-7.559,2.892c0.845-0.12,1.74-0.185,2.684-0.185
			C42.431,11.678,44.825,12.028,47.146,12.689z"/>
		<path d="M37.752,17.798c1.852,1.11,3.001,1.598,5.14,1.239c0.49-0.083,1.137-0.02,1.593,0.214
			c1.479,0.762,3.255,3.425,5.139,2.665c0.916-0.37,1.115-0.433,2.075-0.54c1.416-0.157,3.012,1.109,4.302,2.292
			c0.228-1.021,0.335-2.041,0.319-3.042c-1.783-2.39-5.377-4.688-9.746-5.935c-2.138-0.608-4.333-0.931-6.353-0.931
			c-1.97,0-3.701,0.306-5.064,0.848c-0.472,0.735-0.88,1.527-1.204,2.375C35.254,16.918,36.52,17.058,37.752,17.798z"/>
		<path d="M42.973,27.328c2.136,0.609,4.333,0.932,6.352,0.932c2.083,0,3.9-0.34,5.294-0.941c0.347-0.612,0.645-1.262,0.896-1.944
			c-1.384-1.282-3.225-2.864-5.123-2.079c-0.892,0.368-0.907,0.409-1.827,0.528c-1.343,0.174-2.453-1.391-3.301-2.14
			c-2.537-2.247-3.648,0.286-5.921-0.748c-0.967-0.44-0.995-0.452-1.797-1.201c-1.292-1.207-2.661-1.309-4.075-1.168
			c-0.218,0.885-0.34,1.767-0.374,2.641c0.349,0.492,0.771,0.988,1.279,1.482C36.436,24.687,39.488,26.335,42.973,27.328z"/>
		<path d="M42.401,29.331c-3.547-1.01-6.697-2.67-8.975-4.698c0.721,3.038,2.541,5.674,5.141,7.285
			c0.151,0.094,0.302,0.191,0.458,0.278c0.155,0.086,0.315,0.161,0.475,0.238c0.575,0.284,1.176,0.531,1.812,0.712
			c0.638,0.182,1.276,0.281,1.918,0.345c0.177,0.018,0.354,0.028,0.528,0.036c0.177,0.009,0.354,0.036,0.531,0.036
			c0.004,0,0.008,0.003,0.012,0.003c3.054,0,5.99-1.292,8.201-3.489c-0.986,0.172-2.048,0.267-3.18,0.267
			C47.115,30.343,44.721,29.993,42.401,29.331z"/>
	</g>
</g>
<g>
</g>
<g>
</g>
<g>
</g>
<g>
</g>
<g>
</g>
<g>
</g>
<g>
</g>
<g>
</g>
<g>
</g>
<g>
</g>
<g>
</g>
<g>
</g>
<g>
</g>
<g>
</g>
<g>
</g>
</svg>
