<?xml version="1.0" encoding="iso-8859-1"?>
<!-- Generator: Adobe Illustrator 18.0.0, SVG Export Plug-In . SVG Version: 6.00 Build 0)  -->
<!DOCTYPE svg PUBLIC "-//W3C//DTD SVG 1.1//EN" "http://www.w3.org/Graphics/SVG/1.1/DTD/svg11.dtd">
<svg version="1.1" id="Capa_1" xmlns="http://www.w3.org/2000/svg" xmlns:xlink="http://www.w3.org/1999/xlink" x="0px" y="0px"
	 viewBox="0 0 482.382 482.382" style="enable-background:new 0 0 482.382 482.382;" xml:space="preserve">
<path d="M378.205,239.638c-21.615-33.623-54.52-73.181-93.074-111.967l14.469-14.603c2.915-2.942,2.894-7.691-0.05-10.606
	c-2.941-2.916-7.69-2.894-10.606,0.049l-14.472,14.606c-33.314-32.495-68.048-61.646-98.406-82.533
	C153.133,18.807,121.445,0,100.702,0C93.8,0,88.306,2.013,84.372,5.983c-11.977,12.089-5.313,38.029,19.806,77.102
	c20.927,32.553,52.437,70.67,89.413,108.264l-23.792,23.791c-0.551,0.551-0.998,1.167-1.342,1.822
	c-0.883,1.229-1.407,2.733-1.407,4.362v174.794l-79.107,65.596c-1.532,1.27-2.496,3.097-2.681,5.078
	c-0.185,1.981,0.426,3.954,1.696,5.485l6.137,7.394c1.483,1.787,3.621,2.71,5.775,2.71c1.687,0,3.384-0.566,4.783-1.727
	l63.396-52.566v42.596c0,4.142,3.357,7.5,7.5,7.5h9.609c4.143,0,7.5-3.358,7.5-7.5v-42.597l63.396,52.567
	c1.399,1.161,3.096,1.727,4.783,1.727c2.153,0,4.292-0.923,5.775-2.71l6.137-7.394c1.27-1.531,1.881-3.504,1.696-5.485
	c-0.185-1.981-1.148-3.808-2.681-5.078l-79.107-65.597V228.083l19.411-19.412c32.344,31.26,65.848,59.242,95.247,79.469
	c22.931,15.777,54.62,34.584,75.362,34.584c6.902,0,12.397-2.013,16.331-5.983C409.987,304.651,403.323,278.71,378.205,239.638z
	 M387.354,306.182c-1.262,1.274-3.782,1.541-5.675,1.541c-12.986,0-37.357-11.642-66.86-31.941
	c-31.275-21.518-67.395-52.09-101.704-86.084c-40.087-39.719-74.294-80.462-96.32-114.724
	C91.999,36.402,91.713,19.885,95.027,16.541C96.29,15.267,98.81,15,100.702,15c12.987,0,37.356,11.642,66.861,31.941
	c29.653,20.402,63.659,48.949,96.351,80.831l-3.641,3.674c-19.488-18.419-44.723-37.693-58.803-37.693
	c-4.622,0-7.476,1.901-9.057,3.497c-7.992,8.067-0.367,22.298,6.063,32.301c7.85,12.21,19.933,26.623,34.023,40.585
	c19.977,19.793,48.775,42.907,64.195,42.907c4.622,0,7.476-1.901,9.056-3.496c7.993-8.066,0.369-22.298-6.062-32.301
	c-6.853-10.659-16.932-22.997-28.755-35.246l3.638-3.672c37.795,38.026,69.969,76.684,91.016,109.423
	C390.383,286.321,390.668,302.837,387.354,306.182z M246.509,155.994c1.462,1.449,3.37,2.172,5.278,2.172
	c1.931,0,3.861-0.741,5.328-2.221l3.258-3.289c20.154,20.907,30.419,37.321,33.084,44.702c-8.546-2.906-27.458-15.147-50.4-37.879
	c-23.657-23.44-35.462-42.045-38.35-50.044c7.865,2.675,24.519,13.267,45.011,32.663l-3.259,3.289
	C243.544,148.33,243.566,153.079,246.509,155.994z"/>
<g>
</g>
<g>
</g>
<g>
</g>
<g>
</g>
<g>
</g>
<g>
</g>
<g>
</g>
<g>
</g>
<g>
</g>
<g>
</g>
<g>
</g>
<g>
</g>
<g>
</g>
<g>
</g>
<g>
</g>
</svg>
