<svg height="512pt" viewBox="-28 0 512 512" width="512pt" xmlns="http://www.w3.org/2000/svg"><path d="m431.792969 315.699219c-.585938-.339844-1.175781-.660157-1.769531-.96875 5.441406-18.648438 8.367187-38.351563 8.367187-58.730469 0-20.386719-2.929687-40.097656-8.375-58.746094.59375-.3125 1.191406-.613281 1.777344-.953125 23.875-13.785156 32.085937-44.421875 18.300781-68.300781-13.785156-23.875-44.425781-32.085938-68.300781-18.300781-.617188.359375-1.226563.726562-1.824219 1.109375-27.191406-28.375-62.246094-49.144532-101.621094-58.789063.027344-.671875.042969-1.34375.042969-2.019531 0-27.570312-22.429687-50-50-50s-50 22.429688-50 50c0 .675781.027344 1.347656.058594 2.015625-39.390625 9.648437-74.460938 30.425781-101.65625 58.8125-.597657-.378906-1.183594-.773437-1.800781-1.128906-23.878907-13.785157-54.515626-5.574219-68.304688 18.300781-13.785156 23.875-5.574219 54.515625 18.300781 68.300781.585938.339844 1.179688.660157 1.773438.972657-5.441407 18.644531-8.371094 38.347656-8.371094 58.726562 0 20.382812 2.929687 40.089844 8.371094 58.734375-.59375.3125-1.1875.625-1.773438.964844-23.875 13.785156-32.082031 44.425781-18.300781 68.300781 9.253906 16.023438 26.09375 24.988281 43.386719 24.988281 8.476562 0 17.0625-2.152343 24.914062-6.6875.621094-.355469 1.222657-.730469 1.820313-1.113281 27.191406 28.378906 62.253906 49.148438 101.632812 58.792969-.027344.671875-.050781 1.34375-.050781 2.019531 0 27.570312 22.429687 50 50 50s50-22.429688 50-50c0-.675781-.03125-1.347656-.058594-2.015625 39.382813-9.644531 74.441407-30.414063 101.636719-58.792969.597656.382813 1.203125.753906 1.824219 1.109375 7.855469 4.535157 16.4375 6.6875 24.914062 6.6875 17.292969 0 34.136719-8.96875 43.386719-24.988281 13.785156-23.875 5.574219-54.515625-18.300781-68.300781zm.980469-177.699219c7.960937 13.789062 3.691406 31.328125-9.410157 40.003906-7.53125-18.757812-17.683593-36.183594-30.015625-51.820312 14.078125-7.066406 31.453125-1.996094 39.425782 11.816406zm-204.382813-118c15.917969 0 28.976563 12.464844 29.9375 28.144531-9.78125-1.402343-19.773437-2.144531-29.9375-2.144531-10.160156 0-20.152344.742188-29.9375 2.144531.964844-15.679687 14.019531-28.144531 29.9375-28.144531zm-204.378906 118c5.550781-9.613281 15.652343-14.992188 26.027343-14.992188 4.53125 0 9.113282 1.03125 13.394532 3.179688-12.332032 15.636719-22.484375 33.0625-30.015625 51.816406-13.101563-8.675781-17.367188-26.214844-9.40625-40.003906zm0 236c-7.960938-13.789062-3.695313-31.328125 9.410156-40.003906 7.527344 18.753906 17.679687 36.183594 30.011719 51.820312-14.074219 7.066406-31.449219 1.996094-39.421875-11.816406zm204.378906 118c-15.917969 0-28.972656-12.464844-29.9375-28.144531 9.785156 1.402343 19.777344 2.144531 29.9375 2.144531 10.164063 0 20.15625-.742188 29.9375-2.144531-.960937 15.679687-14.019531 28.144531-29.9375 28.144531zm0-46c-104.765625 0-190-85.234375-190-190s85.234375-190 190-190c104.769531 0 190 85.234375 190 190s-85.230469 190-190 190zm204.382813-72c-7.972657 13.8125-25.351563 18.882812-39.421876 11.816406 12.332032-15.636718 22.480469-33.0625 30.011719-51.820312 13.101563 8.675781 17.371094 26.214844 9.410157 40.003906zm0 0"/><path d="m386.183594 311.5c-1.050782-2.449219-3-4.351562-5.480469-5.339844-1.191406-.480468-2.441406-.71875-3.710937-.71875-4.109376 0-7.75 2.457032-9.28125 6.269532l-.007813.007812c-17.691406 44.210938-55.722656 77.679688-101.730469 89.542969-2.589844.660156-4.761718 2.296875-6.121094 4.597656-1.359374 2.300781-1.738281 4.992187-1.070312 7.582031 1.140625 4.417969 5.121094 7.5 9.679688 7.5.839843 0 1.679687-.113281 2.5-.320312 12.992187-3.351563 25.589843-8.261719 37.429687-14.589844 11.652344-6.222656 22.582031-13.8125 32.5-22.570312 9.882813-8.730469 18.75-18.609376 26.359375-29.371094 7.683594-10.859375 14.082031-22.609375 19.023438-34.929688.988281-2.480468.957031-5.199218-.089844-7.660156zm0 0"/><path d="m228.902344 406h-.03125c-5.519532.019531-9.988282 4.519531-9.96875 10.03125.019531 5.5 4.5 9.96875 10 9.96875h.03125c2.667968-.011719 5.179687-1.058594 7.058594-2.949219 1.878906-1.902343 2.917968-4.410156 2.910156-7.082031-.019532-5.5-4.5-9.96875-10-9.96875zm0 0"/></svg>