<svg height="512pt" viewBox="0 -31 512 512" width="512pt" xmlns="http://www.w3.org/2000/svg"><path d="m337.566406 210.398438-36.566406 18.601562 35.699219 71h139.601562l35.699219-71-47.878906-19zm0 0" fill="#dabba6"/><path d="m444.5 60h-76l-38.558594 82.589844 38.558594 86.410156h76l35.734375-64.527344zm0 0" fill="#ff641a"/><path d="m36.566406 210.398438-36.566406 18.601562 35.699219 71h139.601562l35.699219-71-47.878906-19zm0 0" fill="#f4d7af"/><path d="m143.5 60h-76l-38.558594 82.589844 38.558594 86.410156h76l35.734375-64.527344zm0 0" fill="#ff9100"/><path d="m399.402344 422.398438-16.804688 25.199218-126.597656-84.597656-126.597656 84.597656-16.804688-25.199218 143.402344-95.398438zm0 0" fill="#575f64"/><path d="m399.402344 422.398438-16.804688 25.199218-126.597656-84.597656v-36zm0 0" fill="#32393f"/><path d="m241 45h30v405h-30zm0 0" fill="#575f64"/><path d="m256 45h15v405h-15zm0 0" fill="#32393f"/><path d="m196 30h120v30h-120zm0 0" fill="#7c8388"/><path d="m196 120h120v30h-120zm0 0" fill="#7c8388"/><path d="m256 30h60v30h-60zm0 0" fill="#575f64"/><path d="m256 120h60v30h-60zm0 0" fill="#575f64"/><path d="m58.199219 60h10.800781v169h-69v-139zm0 0" fill="#ff641a"/><path d="m211 90v139h-69v-169h26.101562zm0 0" fill="#ff641a"/><path d="m359.199219 60h10.800781v169h-69v-139zm0 0" fill="#f03800"/><path d="m512 90v139h-69v-169h26.101562zm0 0" fill="#f03800"/><path d="m211 90h-211v-90h211zm0 0" fill="#f4d7af"/><path d="m512 90h-211v-90h211zm0 0" fill="#dabba6"/></svg>