<svg height="512pt" viewBox="0 0 512 512" width="512pt" xmlns="http://www.w3.org/2000/svg"><path d="m421.914062 256c0-91.484375-74.429687-165.914062-165.914062-165.914062l-20.015625 306.835937 185.929687-20.019531zm0 0" fill="#a3003c"/><path d="m90.085938 256v120.902344l165.914062 20.019531v-306.835937c-91.484375 0-165.914062 74.429687-165.914062 165.914062zm0 0" fill="#e50058"/><path d="m421.914062 376.902344h-165.914062l-20.015625 80.066406 185.929687-20.015625zm0 0" fill="#e50058"/><path d="m90.085938 376.902344v60.050781l165.914062 20.015625v-80.066406zm0 0" fill="#ff5b5b"/><g fill="#e50058"><path d="m241 0h30v60.046875h-30zm0 0"/><path d="m140.992188 26.792969 30.023437 52.003906-25.980469 15-30.023437-52.003906zm0 0"/><path d="m41.796875 115.007812 52 30.023438-15 25.980469-52-30.027344zm0 0"/><path d="m0 241h60.046875v30h-60.046875zm0 0"/><path d="m451.953125 241h60.046875v30h-60.046875zm0 0"/><path d="m470.203125 115 15 25.980469-52 30.023437-15-25.980468zm0 0"/><path d="m371 26.796875 25.980469 15-30.023438 52-25.980469-15zm0 0"/></g><path d="m451.941406 436.953125h-195.941406l-20.015625 37.523437 20.015625 37.523438h195.941406zm0 0" fill="#c8d2dc"/><path d="m60.058594 436.953125h195.941406v75.046875h-195.941406zm0 0" fill="#ebebf0"/></svg>