<svg height="512pt" viewBox="0 -39 512 511" width="512pt" xmlns="http://www.w3.org/2000/svg" xmlns:xlink="http://www.w3.org/1999/xlink"><linearGradient id="linear0" gradientUnits="userSpaceOnUse" x1="0" x2="512" y1="217.170098" y2="217.170098"><stop offset="0" stop-color="#80d8ff"/><stop offset="1" stop-color="#ea80fc"/></linearGradient><path d="m177.332031 191.042969c-36.097656 0-65.464843 29.367187-65.464843 65.464843 0 36.097657 29.367187 65.464844 65.464843 65.464844 36.097657 0 65.46875-29.367187 65.46875-65.464844 0-36.097656-29.367187-65.464843-65.46875-65.464843zm0 90.929687c-14.042969 0-25.464843-11.421875-25.464843-25.464844 0-14.042968 11.421874-25.46875 25.464843-25.46875s25.46875 11.425782 25.46875 25.46875c0 14.042969-11.425781 25.464844-25.46875 25.464844zm310.070313-280.929687c-11.820313 2.792969-352.839844 83.335937-354.460938 83.757812-76.371094 19.757813-132.941406 89.25-132.941406 171.707031 0 97.78125 79.550781 177.332032 177.332031 177.332032 112.464844 0 196.863281-103.867188 173.476563-214.15625l152.460937-103.988282c5.464844-3.726562 8.730469-9.910156 8.730469-16.519531v-78.667969c0-12.894531-12.046875-22.429687-24.597656-19.464843zm-310.070313 392.796875c-75.726562 0-137.332031-61.605469-137.332031-137.332032 0-75.789062 61.695312-137.335937 137.332031-137.335937 75.726563 0 137.332031 61.609375 137.332031 137.335937.003907 75.726563-61.605468 137.332032-137.332031 137.332032zm294.667969-305.234375-134.53125 91.757812c-17.292969-36.21875-46.519531-65.691406-82.5625-83.296875l217.09375-51.285156zm0 0" fill="url(#linear0)"/></svg>